<svg xmlns="http://www.w3.org/2000/svg" width="220" height="36" viewBox="0 0 220 36" fill="none">
  <g fill="#000">
    <!-- DevRev emblem approximation -->
    <path d="M6 6a6 6 0 0 1 6-6h6v6a6 6 0 0 1-6 6H6V6Z"/>
    <path d="M6 18h6a6 6 0 0 1 6 6v6h-6a6 6 0 0 1-6-6v-6Z"/>
    <path d="M24 6h6a6 6 0 0 1 6 6v6h-6a6 6 0 0 1-6-6V6Z"/>
    <path d="M24 24h6l-6 6v-6Z"/>
  </g>
  <g transform="translate(48,5)" fill="#000">
    <path d="M0 23V2h9.6c5.9 0 10 3.9 10 10.5S15.5 23 9.6 23H0Zm7-5.2h2.5c3 0 5.1-1.7 5.1-5.3s-2.1-5.3-5.1-5.3H7V17.8Z"/>
    <path d="M29.3 23.4c-6.1 0-10.5-4.3-10.5-10.2S23.3 3 29.4 3c3.9 0 6.7 1.5 8.5 4.2l-4.9 2.8c-.9-1.3-2-2-3.7-2-2.7 0-4.6 2.1-4.6 5.2 0 3.1 2 5.2 4.7 5.2 1.7 0 2.9-.7 3.8-2l4.9 2.8c-1.8 2.8-4.7 4.2-8.8 4.2Z"/>
    <path d="M41.8 23l7.8-20h6.6l7.8 20h-6.4l-1.2-3.3h-7l-1.2 3.3h-6.4Zm9.4-8h4.2l-2.1-5.7-2.1 5.7Z"/>
    <path d="M76.5 23V3h6.8v7.4h.2l5.3-7.4h7.7l-6.9 8.9 7.6 11.1h-7.9l-5.8-8.7h-.2V23h-6.8Z"/>
    <path d="M115.6 23.4c-6.1 0-10.5-4.3-10.5-10.2S109.6 3 115.7 3c3.9 0 6.7 1.5 8.5 4.2l-4.9 2.8c-.9-1.3-2-2-3.7-2-2.7 0-4.6 2.1-4.6 5.2 0 3.1 2 5.2 4.7 5.2 1.7 0 2.9-.7 3.8-2l4.9 2.8c-1.8 2.8-4.7 4.2-8.8 4.2Z"/>
    <path d="M127.7 23l7.8-20h6.6l7.8 20h-6.4l-1.2-3.3h-7l-1.2 3.3h-6.4Zm9.4-8h4.2l-2.1-5.7-2.1 5.7Z"/>
  </g>
</svg>

